<?xml version="1.0" encoding="utf-8"?>
<!-- Generator: Adobe Illustrator 26.4.1, SVG Export Plug-In . SVG Version: 6.00 Build 0)  -->
<svg version="1.1" id="Layer_1" xmlns="http://www.w3.org/2000/svg" xmlns:xlink="http://www.w3.org/1999/xlink" x="0px" y="0px"
	 viewBox="0 0 659.48 124.9" style="enable-background:new 0 0 659.48 124.9;" xml:space="preserve">
<style type="text/css">
	.st0{fill:#004C45;}
</style>
<g>
	<path class="st0" d="M78.97,124.9h65.26L72.13,0L0,124.9h65.25v-15.44h-5.47l12.35-21.38l12.33,21.38h-5.49V124.9z M72.11,57.94
		l-29.73,51.49H26.41l45.72-79.16l45.68,79.16h-15.96L72.11,57.94z"/>
	<rect x="169.91" y="0" class="st0" width="1" height="124.9"/>
</g>
<g>
	<polygon class="st0" points="204.92,84.08 216.23,84.08 216.23,86.75 207.71,86.75 207.71,92.42 215.17,92.42 215.17,95.07 
		207.71,95.07 207.71,102.95 204.92,102.95 	"/>
	<path class="st0" d="M217.5,93.54c0-1.3,0.25-2.53,0.74-3.69c0.49-1.16,1.18-2.19,2.07-3.09c0.88-0.9,1.91-1.61,3.07-2.12
		c1.16-0.51,2.41-0.77,3.74-0.77c1.32,0,2.56,0.26,3.72,0.77c1.16,0.51,2.19,1.22,3.09,2.12c0.9,0.9,1.6,1.93,2.11,3.09
		c0.5,1.16,0.75,2.39,0.75,3.69c0,1.33-0.25,2.58-0.75,3.74c-0.5,1.16-1.2,2.18-2.09,3.07c-0.89,0.88-1.92,1.57-3.09,2.07
		c-1.17,0.49-2.41,0.74-3.73,0.74c-1.33,0-2.58-0.24-3.74-0.73c-1.16-0.49-2.18-1.17-3.07-2.04c-0.88-0.87-1.57-1.9-2.07-3.07
		C217.75,96.15,217.5,94.89,217.5,93.54 M220.36,93.54c0,0.97,0.18,1.88,0.53,2.72c0.36,0.84,0.84,1.58,1.47,2.21
		c0.62,0.63,1.35,1.13,2.17,1.48c0.82,0.36,1.71,0.53,2.66,0.53c0.94,0,1.81-0.18,2.63-0.53c0.81-0.36,1.53-0.85,2.14-1.48
		c0.61-0.63,1.1-1.37,1.44-2.21c0.35-0.84,0.52-1.75,0.52-2.72c0-0.97-0.18-1.88-0.53-2.72c-0.36-0.84-0.84-1.58-1.46-2.22
		c-0.62-0.64-1.33-1.14-2.16-1.51c-0.82-0.36-1.7-0.55-2.64-0.55c-0.97,0-1.86,0.18-2.68,0.55c-0.81,0.36-1.53,0.87-2.16,1.51
		c-0.62,0.64-1.1,1.39-1.44,2.24C220.53,91.68,220.36,92.59,220.36,93.54"/>
	<path class="st0" d="M244.79,84.08c0.99,0,1.9,0.13,2.74,0.4c0.84,0.27,1.56,0.65,2.16,1.16c0.6,0.5,1.06,1.12,1.4,1.86
		c0.34,0.74,0.51,1.59,0.51,2.56c0,0.75-0.11,1.48-0.34,2.21c-0.23,0.73-0.59,1.39-1.09,1.98c-0.5,0.59-1.16,1.06-1.98,1.42
		c-0.81,0.36-1.83,0.53-3.04,0.53h-2.75v6.76h-2.78V84.08H244.79z M245.11,93.54c0.71,0,1.3-0.11,1.78-0.34
		c0.48-0.22,0.85-0.51,1.12-0.84c0.27-0.34,0.46-0.7,0.57-1.09c0.11-0.39,0.17-0.77,0.17-1.13c0-0.35-0.06-0.71-0.17-1.09
		c-0.11-0.38-0.3-0.75-0.57-1.09c-0.27-0.35-0.63-0.63-1.08-0.86c-0.45-0.23-1.01-0.34-1.66-0.34h-2.86v6.78H245.11z M248.3,95.15
		l4.89,7.8h-3.22L245,95.23L248.3,95.15z"/>
	<polygon class="st0" points="255.61,84.08 268,84.08 268,86.75 258.39,86.75 258.39,92.13 266.94,92.13 266.94,94.81 258.39,94.81 
		258.39,100.27 268.37,100.27 268.37,102.95 255.61,102.95 	"/>
	<path class="st0" d="M281.16,87.69c-0.66-0.35-1.37-0.64-2.13-0.88c-0.76-0.24-1.5-0.36-2.21-0.36c-0.97,0-1.74,0.22-2.31,0.66
		c-0.57,0.44-0.86,1.04-0.86,1.81c0,0.54,0.19,1.01,0.57,1.4c0.38,0.4,0.88,0.75,1.48,1.04c0.61,0.29,1.25,0.57,1.92,0.83
		c0.57,0.21,1.14,0.46,1.7,0.74c0.56,0.29,1.08,0.64,1.53,1.05c0.46,0.42,0.82,0.93,1.09,1.55c0.27,0.62,0.4,1.37,0.4,2.25
		c0,1-0.25,1.91-0.74,2.73c-0.49,0.81-1.21,1.46-2.13,1.94c-0.93,0.48-2.05,0.71-3.37,0.71c-0.8,0-1.57-0.09-2.33-0.27
		c-0.75-0.18-1.46-0.42-2.13-0.73c-0.67-0.3-1.27-0.64-1.81-1L271.1,99c0.42,0.29,0.89,0.58,1.43,0.84
		c0.54,0.27,1.09,0.48,1.68,0.64c0.58,0.16,1.13,0.23,1.65,0.23c0.57,0,1.13-0.1,1.69-0.3c0.55-0.2,1.01-0.51,1.38-0.94
		c0.36-0.42,0.55-0.98,0.55-1.68c0-0.59-0.16-1.09-0.48-1.49c-0.32-0.41-0.75-0.76-1.27-1.05c-0.53-0.29-1.1-0.55-1.7-0.78
		c-0.59-0.22-1.19-0.48-1.79-0.75c-0.61-0.28-1.17-0.61-1.69-1c-0.52-0.39-0.94-0.88-1.26-1.46c-0.32-0.58-0.48-1.29-0.48-2.14
		c0-1,0.24-1.88,0.72-2.64c0.48-0.75,1.14-1.35,1.99-1.78c0.85-0.43,1.83-0.68,2.94-0.73c1.26,0,2.36,0.16,3.3,0.47
		c0.94,0.31,1.77,0.69,2.5,1.12L281.16,87.69z"/>
	<polygon class="st0" points="283.68,84.08 296.26,84.08 296.26,86.75 291.29,86.75 291.29,102.95 288.51,102.95 288.51,86.75 
		283.68,86.75 	"/>
	<path class="st0" d="M303.92,102.95l8.29-19.62h0.16l8.29,19.62h-3.17l-6.03-15.28l2-1.33l-6.81,16.61H303.92z M308.97,95.88h6.71
		l0.96,2.39h-8.5L308.97,95.88z"/>
	<path class="st0" d="M335.58,101.52c-0.28,0.19-0.69,0.42-1.23,0.69c-0.55,0.27-1.19,0.5-1.92,0.69c-0.74,0.19-1.55,0.28-2.43,0.26
		c-1.47-0.02-2.79-0.28-3.96-0.78c-1.17-0.5-2.16-1.19-2.98-2.07c-0.81-0.88-1.44-1.88-1.88-3.02c-0.44-1.13-0.66-2.34-0.66-3.63
		c0-1.42,0.23-2.72,0.68-3.91c0.45-1.19,1.09-2.22,1.94-3.11c0.84-0.88,1.83-1.57,2.96-2.05c1.13-0.49,2.38-0.73,3.73-0.73
		c1.16,0,2.21,0.16,3.15,0.47c0.94,0.31,1.72,0.68,2.37,1.09l-1.09,2.6c-0.5-0.35-1.12-0.68-1.86-1c-0.74-0.32-1.56-0.48-2.46-0.48
		c-0.88,0-1.72,0.18-2.51,0.53c-0.79,0.35-1.48,0.85-2.08,1.48c-0.6,0.63-1.07,1.37-1.42,2.21c-0.35,0.84-0.52,1.75-0.52,2.74
		c0,1,0.16,1.93,0.47,2.78c0.31,0.85,0.76,1.59,1.34,2.21c0.58,0.62,1.28,1.11,2.09,1.46c0.81,0.35,1.73,0.52,2.76,0.52
		c0.97,0,1.82-0.15,2.56-0.44c0.74-0.29,1.34-0.63,1.81-1.01L335.58,101.52z"/>
	<path class="st0" d="M352.35,101.52c-0.28,0.19-0.69,0.42-1.23,0.69c-0.55,0.27-1.19,0.5-1.92,0.69c-0.74,0.19-1.55,0.28-2.43,0.26
		c-1.47-0.02-2.79-0.28-3.96-0.78c-1.17-0.5-2.16-1.19-2.98-2.07c-0.82-0.88-1.44-1.88-1.88-3.02c-0.44-1.13-0.66-2.34-0.66-3.63
		c0-1.42,0.23-2.72,0.68-3.91c0.45-1.19,1.09-2.22,1.94-3.11c0.84-0.88,1.83-1.57,2.96-2.05c1.13-0.49,2.38-0.73,3.73-0.73
		c1.16,0,2.21,0.16,3.15,0.47c0.94,0.31,1.72,0.68,2.36,1.09l-1.09,2.6c-0.5-0.35-1.12-0.68-1.86-1c-0.74-0.32-1.56-0.48-2.46-0.48
		c-0.88,0-1.72,0.18-2.51,0.53c-0.79,0.35-1.48,0.85-2.08,1.48c-0.6,0.63-1.07,1.37-1.42,2.21c-0.35,0.84-0.52,1.75-0.52,2.74
		c0,1,0.16,1.93,0.47,2.78c0.31,0.85,0.76,1.59,1.34,2.21c0.58,0.62,1.28,1.11,2.09,1.46c0.82,0.35,1.73,0.52,2.76,0.52
		c0.97,0,1.82-0.15,2.56-0.44c0.74-0.29,1.34-0.63,1.81-1.01L352.35,101.52z"/>
	<path class="st0" d="M354.04,93.54c0-1.3,0.25-2.53,0.74-3.69c0.49-1.16,1.18-2.19,2.07-3.09c0.88-0.9,1.91-1.61,3.07-2.12
		c1.16-0.51,2.41-0.77,3.74-0.77c1.32,0,2.56,0.26,3.72,0.77c1.16,0.51,2.19,1.22,3.09,2.12c0.9,0.9,1.6,1.93,2.11,3.09
		c0.5,1.16,0.75,2.39,0.75,3.69c0,1.33-0.25,2.58-0.75,3.74c-0.5,1.16-1.2,2.18-2.09,3.07c-0.89,0.88-1.92,1.57-3.09,2.07
		c-1.17,0.49-2.41,0.74-3.73,0.74c-1.33,0-2.58-0.24-3.74-0.73c-1.16-0.49-2.18-1.17-3.07-2.04c-0.88-0.87-1.57-1.9-2.07-3.07
		C354.28,96.15,354.04,94.89,354.04,93.54 M356.9,93.54c0,0.97,0.18,1.88,0.53,2.72c0.35,0.84,0.84,1.58,1.47,2.21
		c0.62,0.63,1.35,1.13,2.17,1.48c0.82,0.36,1.71,0.53,2.66,0.53c0.94,0,1.81-0.18,2.62-0.53c0.81-0.36,1.53-0.85,2.15-1.48
		c0.61-0.63,1.1-1.37,1.44-2.21c0.35-0.84,0.52-1.75,0.52-2.72c0-0.97-0.18-1.88-0.53-2.72c-0.36-0.84-0.84-1.58-1.46-2.22
		c-0.62-0.64-1.34-1.14-2.16-1.51c-0.82-0.36-1.7-0.55-2.64-0.55c-0.97,0-1.86,0.18-2.68,0.55c-0.81,0.36-1.53,0.87-2.16,1.51
		c-0.62,0.64-1.1,1.39-1.44,2.24C357.06,91.68,356.9,92.59,356.9,93.54"/>
	<path class="st0" d="M378.65,96.22c0,0.8,0.2,1.52,0.6,2.16c0.4,0.64,0.93,1.15,1.59,1.53c0.66,0.38,1.39,0.57,2.21,0.57
		c0.87,0,1.64-0.19,2.31-0.57c0.68-0.38,1.21-0.89,1.6-1.53c0.39-0.64,0.59-1.36,0.59-2.16V84.08h2.73v12.22
		c0,1.37-0.32,2.57-0.96,3.6c-0.64,1.03-1.51,1.83-2.6,2.4c-1.09,0.57-2.31,0.86-3.66,0.86c-1.32,0-2.52-0.29-3.61-0.86
		c-1.09-0.57-1.95-1.37-2.59-2.4c-0.63-1.03-0.95-2.23-0.95-3.6V84.08h2.75V96.22z"/>
	<polygon class="st0" points="410.44,103.6 395.91,89.17 396.71,89.43 396.79,102.95 393.99,102.95 393.99,83.48 394.12,83.48 
		408.46,97.93 407.81,97.75 407.76,84.08 410.52,84.08 410.52,103.6 	"/>
	<polygon class="st0" points="413.17,84.08 425.75,84.08 425.75,86.75 420.78,86.75 420.78,102.95 418,102.95 418,86.75 
		413.17,86.75 	"/>
	<rect x="428.37" y="84.08" class="st0" width="2.78" height="18.87"/>
	<polygon class="st0" points="451.61,103.6 437.08,89.17 437.88,89.43 437.96,102.95 435.15,102.95 435.15,83.48 435.28,83.48 
		449.63,97.93 448.98,97.75 448.93,84.08 451.68,84.08 451.68,103.6 	"/>
	<path class="st0" d="M470.61,101.28c-0.26,0.22-0.62,0.45-1.09,0.68c-0.47,0.22-0.99,0.42-1.57,0.6c-0.58,0.17-1.17,0.32-1.78,0.43
		c-0.61,0.11-1.18,0.17-1.71,0.17c-1.53,0-2.89-0.23-4.11-0.7c-1.21-0.47-2.25-1.12-3.12-1.95c-0.87-0.83-1.53-1.81-1.99-2.92
		c-0.46-1.12-0.69-2.33-0.69-3.65c0-1.61,0.26-3.04,0.78-4.29c0.52-1.25,1.23-2.3,2.12-3.16c0.89-0.86,1.92-1.51,3.09-1.95
		c1.17-0.44,2.4-0.66,3.68-0.66c1.13,0,2.17,0.13,3.13,0.39c0.96,0.26,1.79,0.6,2.48,1.01l-0.91,2.55
		c-0.35-0.19-0.78-0.38-1.29-0.56c-0.51-0.18-1.04-0.33-1.57-0.43c-0.54-0.1-1.03-0.16-1.48-0.16c-1.11,0-2.1,0.16-2.98,0.48
		c-0.88,0.32-1.62,0.78-2.25,1.39c-0.62,0.61-1.11,1.34-1.44,2.21c-0.34,0.87-0.51,1.85-0.51,2.94c0,0.99,0.17,1.89,0.52,2.72
		c0.35,0.82,0.83,1.53,1.46,2.13c0.62,0.6,1.37,1.06,2.23,1.38c0.87,0.32,1.83,0.48,2.89,0.48c0.61,0,1.2-0.06,1.79-0.18
		c0.59-0.12,1.09-0.29,1.51-0.52v-3.43h-3.64v-2.68h6.45V101.28z"/>
	<path class="st0" d="M494.88,101.52c-0.28,0.19-0.69,0.42-1.23,0.69c-0.54,0.27-1.19,0.5-1.92,0.69c-0.74,0.19-1.54,0.28-2.43,0.26
		c-1.47-0.02-2.79-0.28-3.96-0.78c-1.17-0.5-2.16-1.19-2.98-2.07c-0.81-0.88-1.44-1.88-1.88-3.02c-0.44-1.13-0.66-2.34-0.66-3.63
		c0-1.42,0.22-2.72,0.68-3.91c0.45-1.19,1.1-2.22,1.94-3.11c0.84-0.88,1.83-1.57,2.96-2.05c1.13-0.49,2.38-0.73,3.73-0.73
		c1.16,0,2.21,0.16,3.14,0.47c0.94,0.31,1.72,0.68,2.37,1.09l-1.09,2.6c-0.5-0.35-1.12-0.68-1.86-1c-0.74-0.32-1.56-0.48-2.46-0.48
		c-0.88,0-1.72,0.18-2.51,0.53c-0.79,0.35-1.48,0.85-2.08,1.48c-0.6,0.63-1.07,1.37-1.42,2.21s-0.52,1.75-0.52,2.74
		c0,1,0.16,1.93,0.47,2.78c0.31,0.85,0.76,1.59,1.34,2.21c0.58,0.62,1.28,1.11,2.09,1.46c0.81,0.35,1.73,0.52,2.76,0.52
		c0.97,0,1.82-0.15,2.56-0.44c0.74-0.29,1.34-0.63,1.8-1.01L494.88,101.52z"/>
	<path class="st0" d="M496.57,93.54c0-1.3,0.25-2.53,0.74-3.69c0.49-1.16,1.18-2.19,2.07-3.09c0.88-0.9,1.9-1.61,3.07-2.12
		c1.16-0.51,2.41-0.77,3.74-0.77c1.32,0,2.56,0.26,3.72,0.77c1.16,0.51,2.19,1.22,3.09,2.12c0.9,0.9,1.6,1.93,2.11,3.09
		c0.5,1.16,0.75,2.39,0.75,3.69c0,1.33-0.25,2.58-0.75,3.74c-0.5,1.16-1.2,2.18-2.09,3.07c-0.89,0.88-1.92,1.57-3.09,2.07
		c-1.17,0.49-2.41,0.74-3.73,0.74c-1.33,0-2.58-0.24-3.74-0.73c-1.16-0.49-2.18-1.17-3.07-2.04c-0.88-0.87-1.57-1.9-2.07-3.07
		C496.82,96.15,496.57,94.89,496.57,93.54 M499.43,93.54c0,0.97,0.18,1.88,0.53,2.72c0.36,0.84,0.84,1.58,1.47,2.21
		c0.62,0.63,1.35,1.13,2.17,1.48c0.82,0.36,1.71,0.53,2.66,0.53c0.94,0,1.81-0.18,2.62-0.53c0.81-0.36,1.53-0.85,2.14-1.48
		c0.62-0.63,1.1-1.37,1.44-2.21c0.35-0.84,0.52-1.75,0.52-2.72c0-0.97-0.18-1.88-0.53-2.72c-0.36-0.84-0.84-1.58-1.45-2.22
		c-0.62-0.64-1.34-1.14-2.16-1.51c-0.82-0.36-1.7-0.55-2.64-0.55c-0.97,0-1.86,0.18-2.68,0.55c-0.81,0.36-1.53,0.87-2.16,1.51
		c-0.62,0.64-1.1,1.39-1.44,2.24C499.6,91.68,499.43,92.59,499.43,93.54"/>
	<path class="st0" d="M523.86,84.08c0.99,0,1.9,0.13,2.74,0.4c0.84,0.27,1.56,0.65,2.16,1.16c0.6,0.5,1.06,1.12,1.4,1.86
		c0.34,0.74,0.51,1.59,0.51,2.56c0,0.75-0.11,1.48-0.34,2.21c-0.22,0.73-0.59,1.39-1.09,1.98c-0.5,0.59-1.16,1.06-1.97,1.42
		c-0.81,0.36-1.83,0.53-3.04,0.53h-2.76v6.76h-2.78V84.08H523.86z M524.18,93.54c0.71,0,1.3-0.11,1.78-0.34
		c0.48-0.22,0.85-0.51,1.12-0.84c0.27-0.34,0.46-0.7,0.57-1.09c0.11-0.39,0.17-0.77,0.17-1.13c0-0.35-0.06-0.71-0.17-1.09
		c-0.11-0.38-0.3-0.75-0.57-1.09c-0.27-0.35-0.63-0.63-1.08-0.86c-0.45-0.23-1.01-0.34-1.66-0.34h-2.86v6.78H524.18z M527.37,95.15
		l4.89,7.8h-3.22l-4.96-7.72L527.37,95.15z"/>
	<path class="st0" d="M539.87,84.08c1.4,0,2.6,0.24,3.6,0.71c1,0.48,1.76,1.16,2.29,2.04c0.53,0.88,0.79,1.96,0.79,3.22
		c0,0.75-0.11,1.48-0.34,2.21c-0.23,0.73-0.59,1.39-1.08,1.99c-0.49,0.6-1.15,1.08-1.96,1.43c-0.82,0.35-1.8,0.53-2.96,0.53h-2.76
		v6.73h-2.78V84.08H539.87z M540.21,93.54c0.69,0,1.27-0.12,1.74-0.35c0.47-0.23,0.84-0.53,1.11-0.9c0.27-0.36,0.46-0.74,0.57-1.13
		c0.11-0.39,0.17-0.74,0.17-1.05c0-0.35-0.06-0.71-0.17-1.1c-0.11-0.39-0.3-0.75-0.56-1.09c-0.26-0.34-0.62-0.62-1.07-0.83
		c-0.45-0.22-1.01-0.32-1.69-0.32h-2.86v6.78H540.21z"/>
	<path class="st0" d="M547.88,93.54c0-1.3,0.25-2.53,0.74-3.69c0.49-1.16,1.18-2.19,2.07-3.09c0.88-0.9,1.9-1.61,3.07-2.12
		c1.16-0.51,2.41-0.77,3.74-0.77c1.32,0,2.56,0.26,3.72,0.77c1.16,0.51,2.19,1.22,3.09,2.12c0.9,0.9,1.6,1.93,2.11,3.09
		c0.5,1.16,0.75,2.39,0.75,3.69c0,1.33-0.25,2.58-0.75,3.74c-0.5,1.16-1.2,2.18-2.09,3.07c-0.89,0.88-1.92,1.57-3.09,2.07
		c-1.17,0.49-2.41,0.74-3.73,0.74c-1.33,0-2.58-0.24-3.74-0.73c-1.16-0.49-2.18-1.17-3.07-2.04c-0.88-0.87-1.57-1.9-2.07-3.07
		C548.13,96.15,547.88,94.89,547.88,93.54 M550.74,93.54c0,0.97,0.18,1.88,0.53,2.72c0.36,0.84,0.84,1.58,1.47,2.21
		c0.62,0.63,1.35,1.13,2.17,1.48c0.82,0.36,1.71,0.53,2.66,0.53c0.94,0,1.81-0.18,2.62-0.53c0.81-0.36,1.53-0.85,2.14-1.48
		c0.62-0.63,1.1-1.37,1.44-2.21c0.35-0.84,0.52-1.75,0.52-2.72c0-0.97-0.18-1.88-0.53-2.72c-0.36-0.84-0.84-1.58-1.46-2.22
		c-0.62-0.64-1.34-1.14-2.16-1.51c-0.82-0.36-1.7-0.55-2.64-0.55c-0.97,0-1.86,0.18-2.68,0.55c-0.81,0.36-1.53,0.87-2.16,1.51
		c-0.62,0.64-1.1,1.39-1.44,2.24C550.91,91.68,550.74,92.59,550.74,93.54"/>
	<path class="st0" d="M575.17,84.08c0.99,0,1.9,0.13,2.74,0.4c0.84,0.27,1.56,0.65,2.16,1.16c0.6,0.5,1.07,1.12,1.4,1.86
		c0.34,0.74,0.51,1.59,0.51,2.56c0,0.75-0.11,1.48-0.34,2.21c-0.22,0.73-0.59,1.39-1.09,1.98c-0.5,0.59-1.16,1.06-1.98,1.42
		c-0.81,0.36-1.83,0.53-3.04,0.53h-2.75v6.76H570V84.08H575.17z M575.48,93.54c0.71,0,1.3-0.11,1.78-0.34
		c0.48-0.22,0.85-0.51,1.12-0.84c0.27-0.34,0.46-0.7,0.57-1.09c0.11-0.39,0.17-0.77,0.17-1.13c0-0.35-0.06-0.71-0.17-1.09
		c-0.11-0.38-0.3-0.75-0.57-1.09c-0.27-0.35-0.63-0.63-1.08-0.86c-0.45-0.23-1.01-0.34-1.66-0.34h-2.86v6.78H575.48z M578.68,95.15
		l4.89,7.8h-3.22l-4.96-7.72L578.68,95.15z"/>
	<path class="st0" d="M584.06,102.95l8.29-19.62h0.15l8.29,19.62h-3.17l-6.03-15.28l2-1.33l-6.81,16.61H584.06z M589.1,95.88h6.71
		l0.96,2.39h-8.5L589.1,95.88z"/>
	<polygon class="st0" points="600.02,84.08 612.6,84.08 612.6,86.75 607.63,86.75 607.63,102.95 604.85,102.95 604.85,86.75 
		600.02,86.75 	"/>
	<rect x="615.22" y="84.08" class="st0" width="2.78" height="18.87"/>
	<path class="st0" d="M620.84,93.54c0-1.3,0.25-2.53,0.74-3.69c0.49-1.16,1.18-2.19,2.07-3.09c0.88-0.9,1.9-1.61,3.07-2.12
		c1.16-0.51,2.41-0.77,3.74-0.77c1.32,0,2.56,0.26,3.72,0.77c1.16,0.51,2.19,1.22,3.09,2.12c0.9,0.9,1.6,1.93,2.11,3.09
		c0.5,1.16,0.75,2.39,0.75,3.69c0,1.33-0.25,2.58-0.75,3.74c-0.5,1.16-1.2,2.18-2.09,3.07c-0.89,0.88-1.92,1.57-3.09,2.07
		c-1.17,0.49-2.41,0.74-3.73,0.74c-1.33,0-2.58-0.24-3.74-0.73c-1.16-0.49-2.18-1.17-3.07-2.04c-0.88-0.87-1.57-1.9-2.07-3.07
		C621.08,96.15,620.84,94.89,620.84,93.54 M623.69,93.54c0,0.97,0.18,1.88,0.53,2.72c0.36,0.84,0.84,1.58,1.47,2.21
		c0.62,0.63,1.35,1.13,2.17,1.48c0.82,0.36,1.71,0.53,2.66,0.53c0.94,0,1.81-0.18,2.62-0.53c0.81-0.36,1.53-0.85,2.14-1.48
		c0.62-0.63,1.1-1.37,1.44-2.21c0.35-0.84,0.52-1.75,0.52-2.72c0-0.97-0.18-1.88-0.53-2.72c-0.36-0.84-0.84-1.58-1.46-2.22
		c-0.62-0.64-1.34-1.14-2.16-1.51c-0.82-0.36-1.7-0.55-2.64-0.55c-0.97,0-1.86,0.18-2.68,0.55c-0.81,0.36-1.53,0.87-2.16,1.51
		c-0.62,0.64-1.1,1.39-1.44,2.24C623.86,91.68,623.69,92.59,623.69,93.54"/>
	<polygon class="st0" points="659.41,103.6 644.88,89.17 645.68,89.43 645.76,102.95 642.95,102.95 642.95,83.48 643.08,83.48 
		657.43,97.93 656.78,97.75 656.73,84.08 659.48,84.08 659.48,103.6 	"/>
	<path class="st0" d="M206.93,45.07c0-3.17,1.35-5.82,3.48-7.59c2.13-1.72,5.15-2.7,8.37-2.7c3.22,0,6.24,0.99,8.32,2.7
		c2.18,1.77,3.54,4.42,3.54,7.59c0,3.17-1.35,5.77-3.54,7.54c-1.61,1.35-3.85,2.29-6.29,2.6v7.75h6.29c4.58,0,9.04-0.62,11.85-2.96
		V22.76h4.21v46.53h-4.21v-5.72c-2.6,2.29-7.43,3.01-13.36,3.01h-20.9v-3.64h11.96V55.2c-2.39-0.37-4.57-1.25-6.24-2.6
		C208.29,50.84,206.93,48.24,206.93,45.07 M220.76,21.31v5.93h11.18v3.64h-26.41v-3.64h11.07v-5.93H220.76z M211.04,45.07
		c0,1.98,0.83,3.59,2.13,4.78c1.4,1.25,3.38,1.98,5.62,1.98c2.23,0,4.21-0.73,5.61-1.98c1.3-1.2,2.13-2.81,2.13-4.78
		c0-2.03-0.83-3.64-2.13-4.78c-1.4-1.3-3.38-2.03-5.61-2.03c-2.24,0-4.21,0.73-5.62,2.03C211.87,41.43,211.04,43.04,211.04,45.07"/>
	<path class="st0" d="M268.27,37.53V27.23H255.9V23.6h16.53v10.55h7.17V23.02h4.06v45.75h-4.06V53.8h-8.16v-3.64h8.16V37.84h-7.17
		c-0.1,15.02-5.56,25.06-17.16,28.54v-4.05C263.44,59.52,268.27,51.1,268.27,37.53 M293.75,69.24h-4.06V22.76h4.06V69.24z"/>
	<path class="st0" d="M309.76,30.93h14.04v-7.64h4.11V33h11.07V22.76h4.16v24.95h-4.16V36.59H327.9v9.46h-22.25V23.28h4.11V30.93z
		 M338.97,56.61v-5.72h4.16v18.92h-34.57V50.89h4.21v5.72H338.97z M323.79,34.51h-14.04v7.95h14.04V34.51z M338.97,60.19h-26.2v6.03
		h26.2V60.19z"/>
	<path class="st0" d="M354.93,35.76c0-4.58,1.4-8.11,3.85-10.4c2.03-1.87,4.84-2.91,8.22-2.91c3.38,0,6.19,1.04,8.16,2.91
		c2.5,2.29,3.9,5.82,3.9,10.4c0,4.63-1.4,8.16-3.9,10.45c-1.98,1.92-4.78,2.91-8.16,2.91c-3.38,0-6.19-0.99-8.22-2.91
		C356.33,43.92,354.93,40.39,354.93,35.76 M393.92,69.5h-35.46V54.27h4.21v11.64h31.24V69.5z M358.98,35.76
		c0,3.33,0.88,5.93,2.55,7.64c1.35,1.35,3.17,2.08,5.46,2.08c2.29,0,4.11-0.73,5.46-2.08c1.61-1.71,2.5-4.31,2.5-7.64
		c0-3.33-0.88-5.93-2.5-7.64c-1.35-1.3-3.17-2.03-5.46-2.03c-2.29,0-4.11,0.73-5.46,2.03C359.87,29.83,358.98,32.43,358.98,35.76
		 M393.04,55.15h-4.16V22.76h4.16V55.15z"/>
	<path class="st0" d="M436.02,49.54H418.3v-6.5h43.36v6.5h-17.78v3.48h14.82v6.34h-6.24v2.55c0,0.78-0.1,1.72-0.42,2.34h7.43v6.29
		h-39.04v-6.29h7.07v-4.89h-6.29v-6.34h14.82V49.54z M439.92,33.63c-3.9,3.85-11.64,6.92-20.27,7.59v-6.55
		c8.99-1.09,16.32-4.42,16.32-11.12V22.3h7.9v1.25c0,6.65,7.23,10.03,16.22,11.12v6.55C451.46,40.54,443.77,37.48,439.92,33.63
		 M444.7,62.07v-2.7h-9.46v4.89h9.25C444.65,63.57,444.7,62.74,444.7,62.07"/>
</g>
</svg>
